# This file uses centimeters as units for non-parametric coordinates.

mtllib SlingshotBasket_01.mtl
g default
v -0.222382 -0.991791 1.103069
v -0.101265 -1.042016 1.310113
v 0.101265 -1.042016 1.310113
v -0.011729 -0.991791 1.103069
v -0.222382 -0.453139 1.103069
v -0.101265 -0.402914 1.310113
v 0.101265 -0.402914 1.310113
v -0.011729 -0.453139 1.103069
v -0.222382 0.085513 0.362908
v -0.101265 0.236189 0.431922
v 0.101265 0.236189 0.431922
v -0.011729 0.085513 0.362908
v -0.222382 0.085513 -0.377253
v -0.101265 0.236189 -0.446268
v 0.101265 0.236189 -0.446268
v -0.011729 0.085513 -0.377253
v -0.222382 -0.453139 -1.117414
v -0.101265 -0.402914 -1.324458
v 0.101265 -0.402914 -1.324458
v -0.011729 -0.453139 -1.117414
v -0.222382 -0.991791 -1.117414
v -0.101265 -1.042017 -1.324458
v 0.101265 -1.042017 -1.324458
v -0.011729 -0.991791 -1.117414
v -0.222382 -1.530443 -0.377253
v -0.101265 -1.681119 -0.446268
v 0.101265 -1.681119 -0.446268
v -0.011729 -1.530443 -0.377253
v -0.222382 -1.530443 0.362908
v -0.101265 -1.681119 0.431922
v 0.101265 -1.681119 0.431922
v -0.011729 -1.530443 0.362908
v -0.235370 -0.991791 -0.377253
v -0.235370 -0.991791 0.362908
v -0.235370 -0.453139 -0.377253
v -0.235370 -0.453139 0.362908
v -0.479687 -0.991791 -0.377253
v -0.479687 -0.991791 0.362908
v -0.479687 -0.453139 -0.377253
v -0.479687 -0.453139 0.362908
v -0.222382 -1.530443 0.733025
v -0.222382 -1.319126 1.103069
v -0.101265 -1.430395 1.310113
v -0.101265 -1.681119 0.871062
v 0.101265 -1.430395 1.310113
v 0.101265 -1.681119 0.871062
v -0.011729 -1.530443 0.733025
v -0.011729 -1.319126 1.103069
v -0.222382 0.085513 0.733025
v -0.222382 -0.125804 1.103069
v -0.101265 -0.014535 1.310113
v -0.101265 0.236189 0.871062
v 0.101265 -0.014535 1.310113
v 0.101265 0.236189 0.871062
v -0.011729 0.085513 0.733025
v -0.011729 -0.125804 1.103069
v -0.222382 -0.125804 -1.117414
v -0.222382 0.085513 -0.747371
v -0.101265 0.236189 -0.885407
v -0.101265 -0.014535 -1.324458
v 0.101265 0.236189 -0.885407
v 0.101265 -0.014535 -1.324458
v -0.011729 -0.125804 -1.117414
v -0.011729 0.085513 -0.747371
v -0.222382 -1.530443 -0.747371
v -0.222382 -1.319126 -1.117414
v -0.101265 -1.430395 -1.324458
v -0.101265 -1.681119 -0.885407
v 0.101265 -1.430395 -1.324458
v 0.101265 -1.681119 -0.885407
v -0.011729 -1.530443 -0.747371
v -0.011729 -1.319126 -1.117414
v -0.121473 -0.991791 -0.754204
v -0.121473 -0.453139 -0.754204
v -0.371697 -0.991791 -0.734654
v -0.371697 -0.453139 -0.734654
v -0.370404 -0.453139 0.724588
v -0.370404 -0.991791 0.724588
v -0.118360 -0.453139 0.750162
v -0.118360 -0.991791 0.750162
vt 0.260868 0.173912
vt 0.521737 0.347825
vt 0.260868 0.434781
vt 0.521737 0.608693
vt 0.260868 0.695649
vt 0.521737 0.869561
vt 0.260868 0.956518
vt 0.695649 0.086956
vt 0.608693 0.086956
vt 0.695649 0.173912
vt 0.086956 0.000000
vt 0.173912 0.000000
vt 0.000000 0.086956
vt 0.086956 0.086956
vt 0.173912 0.086956
vt 0.000000 0.173912
vt 0.173912 0.173912
vt 0.086956 0.260868
vt 0.173912 0.260868
vt 0.565211 0.000000
vt 0.608693 0.000000
vt 0.521737 0.086956
vt 0.217395 0.260868
vt 0.521737 0.173912
vt 0.608693 0.173912
vt 0.608693 0.260868
vt 0.565211 0.260868
vt 0.086956 0.173912
vt 0.043474 0.260868
vt 0.000000 0.226755
vt 0.782605 0.173912
vt 0.782605 0.226755
vt 0.739132 0.260868
vt 0.695649 0.260868
vt 0.000000 0.034113
vt 0.043474 0.000000
vt 0.695649 0.000000
vt 0.739132 0.000000
vt 0.782605 0.034113
vt 0.782605 0.086956
vt 0.217395 0.000000
vt 0.347825 0.000000
vt 0.434781 0.000000
vt 0.521737 0.034113
vt 0.260868 0.226755
vt 0.521737 0.304342
vt 0.260868 0.478263
vt 0.521737 0.555850
vt 0.260868 0.748492
vt 0.521737 0.826079
vt 0.260868 0.034113
vt 0.347825 0.034113
vt 0.260868 0.086956
vt 0.434781 0.034113
vt 0.347825 0.086956
vt 0.434781 0.086956
vt 0.347825 0.173912
vt 0.434781 0.173912
vt 0.347825 0.226755
vt 0.521737 0.226755
vt 0.434781 0.226755
vt 0.260868 0.304342
vt 0.347825 0.304342
vt 0.260868 0.347825
vt 0.434781 0.304342
vt 0.347825 0.347825
vt 0.434781 0.347825
vt 0.347825 0.434781
vt 0.434781 0.434781
vt 0.347825 0.478263
vt 0.521737 0.434781
vt 0.521737 0.478263
vt 0.434781 0.478263
vt 0.260868 0.555850
vt 0.347825 0.555850
vt 0.260868 0.608693
vt 0.434781 0.555850
vt 0.347825 0.608693
vt 0.434781 0.608693
vt 0.347825 0.695649
vt 0.434781 0.695649
vt 0.347825 0.748492
vt 0.521737 0.695649
vt 0.521737 0.748492
vt 0.434781 0.748492
vt 0.260868 0.826079
vt 0.347825 0.826079
vt 0.260868 0.869561
vt 0.434781 0.826079
vt 0.347825 0.869561
vt 0.434781 0.869561
vt 0.347825 0.956518
vt 0.260868 1.000000
vt 0.434781 0.956518
vt 0.347825 1.000000
vt 0.521737 0.956518
vt 0.521737 1.000000
vt 0.434781 1.000000
vt 0.739934 0.086956
vt 0.739934 0.173912
vt 0.044968 0.086956
vt 0.044968 0.173912
vt 0.216403 0.173912
vt 0.216403 0.086956
vt 0.563197 0.173912
vt 0.563197 0.086956
vn -0.863157 0.000000 0.504935
vn -0.863157 0.000000 0.504935
vn -0.863157 0.000000 0.504935
vn -0.863157 0.000000 0.504935
vn 0.000000 0.000000 1.000000
vn 0.000000 0.000000 1.000000
vn 0.000000 0.000000 1.000000
vn 0.000000 0.000000 1.000000
vn 0.877788 0.000000 -0.479049
vn 0.877788 0.000000 -0.479049
vn 0.877788 0.000000 -0.479049
vn 0.877788 0.000000 -0.479049
vn -0.779411 0.626513 0.000000
vn -0.779411 0.626513 0.000000
vn -0.779411 0.626513 0.000000
vn -0.779411 0.626513 0.000000
vn 0.000000 1.000000 0.000000
vn 0.000000 1.000000 0.000000
vn 0.000000 1.000000 0.000000
vn 0.000000 1.000000 0.000000
vn 0.800035 -0.599953 0.000000
vn 0.800035 -0.599953 0.000000
vn 0.800035 -0.599953 0.000000
vn 0.800035 -0.599953 0.000000
vn -0.863158 0.000000 -0.504935
vn -0.863157 0.000000 -0.504935
vn -0.863157 0.000000 -0.504935
vn -0.863158 0.000000 -0.504935
vn 0.000000 0.000000 -1.000000
vn 0.000000 0.000000 -1.000000
vn 0.000000 0.000000 -1.000000
vn 0.000000 0.000000 -1.000000
vn 0.877788 0.000000 0.479049
vn 0.877788 0.000000 0.479049
vn 0.877788 0.000000 0.479049
vn 0.877788 0.000000 0.479049
vn -0.779411 -0.626513 0.000000
vn -0.779411 -0.626513 0.000000
vn -0.779411 -0.626513 0.000000
vn -0.779411 -0.626513 0.000000
vn 0.000000 -1.000000 0.000000
vn 0.000000 -1.000000 0.000000
vn 0.000000 -1.000000 0.000000
vn 0.000000 -1.000000 0.000000
vn 0.800035 0.599953 0.000000
vn 0.800035 0.599953 0.000000
vn 0.800035 0.599953 0.000000
vn 0.800035 0.599953 0.000000
vn 0.945076 0.293380 0.144084
vn 0.945076 0.293380 0.144084
vn 0.945076 0.293380 0.144084
vn 0.945076 0.293380 0.144084
vn 0.923561 0.383451 0.000000
vn 0.923561 0.383451 0.000000
vn 0.923561 0.383451 0.000000
vn 0.923561 0.383451 0.000000
vn 0.957257 0.000000 0.289238
vn 0.957257 0.000000 0.289238
vn 0.957257 0.000000 0.289238
vn 0.957257 0.000000 0.289238
vn 1.000000 0.000000 0.000000
vn 1.000000 0.000000 0.000000
vn 1.000000 0.000000 0.000000
vn 1.000000 0.000000 0.000000
vn 0.957257 0.000000 -0.289237
vn 0.957257 0.000000 -0.289237
vn 0.957257 0.000000 -0.289237
vn 0.957257 0.000000 -0.289237
vn 0.945075 -0.293380 0.144084
vn 0.945075 -0.293380 0.144084
vn 0.945076 -0.293380 0.144084
vn 0.945076 -0.293380 0.144084
vn 0.923561 -0.383451 0.000000
vn 0.923561 -0.383451 0.000000
vn 0.923561 -0.383451 0.000000
vn 0.923561 -0.383451 0.000000
vn 0.945177 -0.292090 -0.146025
vn 0.945177 -0.292090 -0.146025
vn 0.945178 -0.292090 -0.146025
vn 0.945177 -0.292090 -0.146025
vn -0.902337 -0.431030 0.000000
vn -0.902337 -0.431030 0.000000
vn -0.902337 -0.431030 0.000000
vn -0.902337 -0.431030 0.000000
vn -0.958445 -0.161535 0.235137
vn -0.958445 -0.161535 0.235137
vn -0.958445 -0.161535 0.235137
vn -0.958445 -0.161535 0.235137
vn -0.931623 0.000000 -0.363426
vn -0.931623 0.000000 -0.363426
vn -0.931623 0.000000 -0.363426
vn -0.931623 0.000000 -0.363426
vn -1.000000 0.000000 0.000000
vn -1.000000 0.000000 0.000000
vn -1.000000 0.000000 0.000000
vn -1.000000 0.000000 0.000000
vn -0.931309 0.000000 0.364230
vn -0.931309 0.000000 0.364230
vn -0.931309 0.000000 0.364230
vn -0.931309 0.000000 0.364230
vn -0.958318 0.161777 -0.235489
vn -0.958318 0.161777 -0.235489
vn -0.958318 0.161777 -0.235489
vn -0.958318 0.161777 -0.235489
vn -0.902337 0.431031 0.000000
vn -0.902337 0.431031 0.000000
vn -0.902337 0.431030 0.000000
vn -0.902337 0.431030 0.000000
vn -0.958445 0.161535 0.235137
vn -0.958445 0.161535 0.235137
vn -0.958445 0.161535 0.235137
vn -0.958445 0.161535 0.235137
vn 0.945178 0.292089 -0.146025
vn 0.945178 0.292089 -0.146025
vn 0.945178 0.292089 -0.146025
vn 0.945178 0.292089 -0.146025
vn -0.958318 -0.161777 -0.235489
vn -0.958318 -0.161777 -0.235489
vn -0.958318 -0.161777 -0.235489
vn -0.958318 -0.161777 -0.235489
vn -0.854566 -0.450988 0.257541
vn -0.854566 -0.450988 0.257541
vn -0.854566 -0.450988 0.257541
vn -0.854566 -0.450988 0.257541
vn 0.000000 -0.868381 0.495897
vn 0.000000 -0.868381 0.495897
vn 0.000000 -0.868381 0.495897
vn 0.000000 -0.868381 0.495897
vn 0.869912 0.428292 -0.244580
vn 0.869912 0.428292 -0.244580
vn 0.869912 0.428292 -0.244580
vn 0.869912 0.428292 -0.244580
vn -0.854565 0.450989 0.257541
vn -0.854566 0.450989 0.257541
vn -0.854566 0.450989 0.257541
vn -0.854566 0.450989 0.257541
vn 0.000000 0.868382 0.495897
vn 0.000000 0.868382 0.495897
vn 0.000000 0.868382 0.495897
vn 0.000000 0.868382 0.495897
vn 0.869912 -0.428292 -0.244580
vn 0.869912 -0.428292 -0.244580
vn 0.869912 -0.428292 -0.244580
vn 0.869912 -0.428292 -0.244580
vn -0.854566 0.450988 -0.257541
vn -0.854566 0.450988 -0.257541
vn -0.854566 0.450988 -0.257541
vn -0.854566 0.450988 -0.257541
vn 0.000000 0.868381 -0.495897
vn 0.000000 0.868381 -0.495897
vn 0.000000 0.868381 -0.495897
vn 0.000000 0.868381 -0.495897
vn 0.869912 -0.428292 0.244580
vn 0.869912 -0.428292 0.244580
vn 0.869912 -0.428292 0.244580
vn 0.869912 -0.428292 0.244580
vn -0.854566 -0.450988 -0.257541
vn -0.854566 -0.450988 -0.257541
vn -0.854566 -0.450988 -0.257541
vn -0.854566 -0.450988 -0.257541
vn 0.000000 -0.868381 -0.495897
vn 0.000000 -0.868381 -0.495897
vn 0.000000 -0.868381 -0.495897
vn 0.000000 -0.868381 -0.495897
vn 0.869912 0.428292 0.244580
vn 0.869912 0.428292 0.244580
vn 0.869912 0.428292 0.244580
vn 0.869912 0.428292 0.244580
vn -0.863157 0.000000 0.504935
vn -0.863157 0.000000 0.504935
vn -0.863157 0.000000 0.504935
vn -0.863157 0.000000 0.504935
vn 0.000000 0.000000 1.000000
vn 0.000000 0.000000 1.000000
vn 0.000000 0.000000 1.000000
vn 0.000000 0.000000 1.000000
vn 0.877788 0.000000 -0.479049
vn 0.877788 0.000000 -0.479049
vn 0.877788 0.000000 -0.479049
vn 0.877788 0.000000 -0.479049
vn -0.863157 0.000000 0.504935
vn -0.863157 0.000000 0.504935
vn -0.863157 0.000000 0.504935
vn -0.863157 0.000000 0.504935
vn 0.000000 0.000000 1.000000
vn 0.000000 0.000000 1.000000
vn 0.000000 0.000000 1.000000
vn 0.000000 0.000000 1.000000
vn 0.877788 0.000000 -0.479049
vn 0.877788 0.000000 -0.479049
vn 0.877788 0.000000 -0.479049
vn 0.877788 0.000000 -0.479049
vn -0.779411 0.626513 0.000000
vn -0.779411 0.626513 0.000000
vn -0.779411 0.626513 0.000000
vn -0.779411 0.626513 0.000000
vn 0.000000 1.000000 0.000000
vn 0.000000 1.000000 0.000000
vn 0.000000 1.000000 0.000000
vn 0.000000 1.000000 0.000000
vn 0.800035 -0.599953 0.000000
vn 0.800035 -0.599953 0.000000
vn 0.800035 -0.599953 0.000000
vn 0.800035 -0.599953 0.000000
vn -0.779411 0.626513 0.000000
vn -0.779411 0.626513 0.000000
vn -0.779411 0.626513 0.000000
vn -0.779411 0.626513 0.000000
vn 0.000000 1.000000 0.000000
vn 0.000000 1.000000 0.000000
vn 0.000000 1.000000 0.000000
vn 0.000000 1.000000 0.000000
vn 0.800035 -0.599953 0.000000
vn 0.800035 -0.599953 0.000000
vn 0.800035 -0.599953 0.000000
vn 0.800035 -0.599953 0.000000
vn -0.863158 0.000000 -0.504935
vn -0.863158 0.000000 -0.504935
vn -0.863158 0.000000 -0.504935
vn -0.863158 0.000000 -0.504935
vn 0.000000 0.000000 -1.000000
vn 0.000000 0.000000 -1.000000
vn 0.000000 0.000000 -1.000000
vn 0.000000 0.000000 -1.000000
vn 0.877788 0.000000 0.479049
vn 0.877788 0.000000 0.479048
vn 0.877788 0.000000 0.479049
vn 0.877788 0.000000 0.479048
vn -0.863157 0.000000 -0.504935
vn -0.863157 0.000000 -0.504935
vn -0.863157 0.000000 -0.504935
vn -0.863157 0.000000 -0.504935
vn 0.000000 0.000000 -1.000000
vn 0.000000 0.000000 -1.000000
vn 0.000000 0.000000 -1.000000
vn 0.000000 0.000000 -1.000000
vn 0.877788 0.000000 0.479049
vn 0.877788 0.000000 0.479049
vn 0.877788 0.000000 0.479049
vn 0.877788 0.000000 0.479049
vn -0.779411 -0.626513 0.000000
vn -0.779411 -0.626513 0.000000
vn -0.779411 -0.626513 0.000000
vn -0.779411 -0.626513 0.000000
vn 0.000000 -1.000000 0.000000
vn 0.000000 -1.000000 0.000000
vn 0.000000 -1.000000 0.000000
vn 0.000000 -1.000000 0.000000
vn 0.800035 0.599953 0.000000
vn 0.800035 0.599953 0.000000
vn 0.800035 0.599953 0.000000
vn 0.800035 0.599953 0.000000
vn -0.779411 -0.626513 0.000000
vn -0.779411 -0.626513 0.000000
vn -0.779411 -0.626513 0.000000
vn -0.779411 -0.626513 0.000000
vn 0.000000 -1.000000 0.000000
vn 0.000000 -1.000000 0.000000
vn 0.000000 -1.000000 0.000000
vn 0.000000 -1.000000 0.000000
vn 0.800035 0.599953 0.000000
vn 0.800035 0.599953 0.000000
vn 0.800035 0.599953 0.000000
vn 0.800035 0.599953 0.000000
vn 0.975315 0.125036 0.182008
vn 0.975315 0.125036 0.182008
vn 0.975315 0.125036 0.182008
vn 0.975315 0.125036 0.182008
vn 0.957257 0.000000 0.289237
vn 0.957257 0.000000 0.289237
vn 0.957257 0.000000 0.289237
vn 0.957257 0.000000 0.289237
vn 0.975315 -0.125036 0.182008
vn 0.975315 -0.125036 0.182008
vn 0.975315 -0.125036 0.182008
vn 0.975315 -0.125036 0.182008
vn -0.927208 -0.348342 -0.137630
vn -0.927208 -0.348342 -0.137630
vn -0.927208 -0.348342 -0.137630
vn -0.927208 -0.348342 -0.137630
vn -0.957257 0.000000 -0.289237
vn -0.957257 0.000000 -0.289237
vn -0.957257 0.000000 -0.289237
vn -0.957257 0.000000 -0.289237
vn -0.927208 0.348343 -0.137631
vn -0.927208 0.348343 -0.137631
vn -0.927208 0.348343 -0.137631
vn -0.927208 0.348343 -0.137631
vn -0.927287 0.347799 0.138476
vn -0.927287 0.347799 0.138476
vn -0.927287 0.347799 0.138476
vn -0.927287 0.347799 0.138476
vn -0.957257 0.000000 0.289237
vn -0.957257 0.000000 0.289237
vn -0.957257 0.000000 0.289237
vn -0.957257 0.000000 0.289237
vn -0.927287 -0.347799 0.138476
vn -0.927287 -0.347799 0.138476
vn -0.927287 -0.347799 0.138476
vn -0.927287 -0.347799 0.138476
vn 0.975838 -0.123722 -0.180095
vn 0.975837 -0.123722 -0.180095
vn 0.975837 -0.123722 -0.180095
vn 0.975838 -0.123722 -0.180095
vn 0.957257 0.000000 -0.289237
vn 0.957257 0.000000 -0.289237
vn 0.957257 0.000000 -0.289237
vn 0.957257 0.000000 -0.289237
vn 0.975838 0.123722 -0.180095
vn 0.975838 0.123722 -0.180095
vn 0.975838 0.123722 -0.180095
vn 0.975838 0.123722 -0.180095
s off
g pCube1
usemtl lambert2SG
f 1/53/1 2/55/2 6/57/3 5/1/4
f 2/55/5 3/56/6 7/58/7 6/57/8
f 3/56/9 4/22/10 8/24/11 7/58/12
f 9/64/13 10/66/14 14/68/15 13/3/16
f 10/66/17 11/67/18 15/69/19 14/68/20
f 11/67/21 12/2/22 16/71/23 15/69/24
f 17/76/25 18/78/26 22/80/27 21/5/28
f 18/78/29 19/79/30 23/81/31 22/80/32
f 19/79/33 20/4/34 24/83/35 23/81/36
f 25/88/37 26/90/38 30/92/39 29/7/40
f 26/90/41 27/91/42 31/94/43 30/92/44
f 27/91/45 28/6/46 32/96/47 31/94/48
f 28/37/49 71/38/50 73/99/51 33/8/52
f 32/21/53 28/37/54 33/8/55 34/9/56
f 33/8/57 73/99/58 74/100/59 35/10/60
f 34/9/61 33/8/62 35/10/63 36/25/64
f 79/105/65 80/106/66 34/9/67 36/25/68
f 35/10/69 74/100/70 64/33/71 16/34/72
f 36/25/73 35/10/74 16/34/75 12/26/76
f 55/27/77 79/105/78 36/25/79 12/26/80
f 25/11/81 29/12/82 38/15/83 37/14/84
f 78/104/85 41/41/86 42/51/87 1/53/88
f 21/13/89 75/101/90 76/102/91 17/16/92
f 37/14/93 38/15/94 40/17/95 39/28/96
f 77/103/97 78/104/98 1/53/99 5/1/100
f 17/16/101 76/102/102 58/29/103 57/30/104
f 39/28/105 40/17/106 9/19/107 13/18/108
f 49/23/109 77/103/110 5/1/111 50/45/112
f 80/106/113 47/20/114 32/21/115 34/9/116
f 66/35/117 65/36/118 75/101/119 21/13/120
f 42/51/121 41/41/122 44/42/123 43/52/124
f 43/52/125 44/42/126 46/43/127 45/54/128
f 45/54/129 46/43/130 47/20/131 48/44/132
f 49/62/133 50/45/134 51/59/135 52/63/136
f 52/63/137 51/59/138 53/61/139 54/65/140
f 54/65/141 53/61/142 56/60/143 55/46/144
f 57/74/145 58/47/146 59/70/147 60/75/148
f 60/75/149 59/70/150 61/73/151 62/77/152
f 62/77/153 61/73/154 64/72/155 63/48/156
f 65/86/157 66/49/158 67/82/159 68/87/160
f 68/87/161 67/82/162 69/85/163 70/89/164
f 70/89/165 69/85/166 72/84/167 71/50/168
f 42/51/169 43/52/170 2/55/171 1/53/172
f 43/52/173 45/54/174 3/56/175 2/55/176
f 45/54/177 48/44/178 4/22/179 3/56/180
f 5/1/181 6/57/182 51/59/183 50/45/184
f 6/57/185 7/58/186 53/61/187 51/59/188
f 7/58/189 8/24/190 56/60/191 53/61/192
f 49/62/193 52/63/194 10/66/195 9/64/196
f 52/63/197 54/65/198 11/67/199 10/66/200
f 54/65/201 55/46/202 12/2/203 11/67/204
f 13/3/205 14/68/206 59/70/207 58/47/208
f 14/68/209 15/69/210 61/73/211 59/70/212
f 15/69/213 16/71/214 64/72/215 61/73/216
f 57/74/217 60/75/218 18/78/219 17/76/220
f 60/75/221 62/77/222 19/79/223 18/78/224
f 62/77/225 63/48/226 20/4/227 19/79/228
f 21/5/229 22/80/230 67/82/231 66/49/232
f 22/80/233 23/81/234 69/85/235 67/82/236
f 23/81/237 24/83/238 72/84/239 69/85/240
f 65/86/241 68/87/242 26/90/243 25/88/244
f 68/87/245 70/89/246 27/91/247 26/90/248
f 70/89/249 71/50/250 28/6/251 27/91/252
f 29/7/253 30/92/254 44/95/255 41/93/256
f 30/92/257 31/94/258 46/98/259 44/95/260
f 31/94/261 32/96/262 47/97/263 46/98/264
f 73/99/265 71/38/266 72/39/267 24/40/268
f 74/100/269 73/99/270 24/40/271 20/31/272
f 64/33/273 74/100/274 20/31/275 63/32/276
f 75/101/277 65/36/278 25/11/279 37/14/280
f 76/102/281 75/101/282 37/14/283 39/28/284
f 58/29/285 76/102/286 39/28/287 13/18/288
f 40/17/289 77/103/290 49/23/291 9/19/292
f 38/15/293 78/104/294 77/103/295 40/17/296
f 29/12/297 41/41/298 78/104/299 38/15/300
f 8/24/301 79/105/302 55/27/303 56/60/304
f 4/22/305 80/106/306 79/105/307 8/24/308
f 48/44/309 47/20/310 80/106/311 4/22/312
